<svg xmlns="http://www.w3.org/2000/svg" xmlns:xlink="http://www.w3.org/1999/xlink" viewBox="0 0 500 500"><defs><clipPath id="freepik--clip-path--inject-98"><path d="M259.22,229.65s-4.38,2.55-17.52,5.47-21.53-.36-26.64,6.57-19.35,36.87-26.29,48.19-23,28.1-25.55,36.5-.36,16.79,8.4,15.33,20.44-16.79,28.47-25.92,11.68-13.14,11.68-13.14,1.83,15,2.56,22.27-15.7,97.46-15.7,97.46H308.5s-17.52-92-16.79-94.91,23.36-42.7,23.36-42.7,17.89,34.67,20.81,40.88,7.3,12,15.7,12.77,6.93-10.58,5.11-17.88S341.35,286.23,337,276s-5.47-15-13.14-24.83-28.47-15-32.85-16.79-11.68-4.74-11.68-4.74S266.52,224.54,259.22,229.65Z" style="fill:#6DFFE8;stroke:#263238;stroke-linecap:round;stroke-linejoin:round"></path></clipPath><clipPath id="freepik--clip-path-2--inject-98"><path d="M259.22,216.14l-1.46,20.08s.73,18.25,2.56,18.25,21.54-22.27,21.54-22.27l4-29.57Z" style="fill:#fff;stroke:#263238;stroke-linecap:round;stroke-linejoin:round"></path></clipPath><clipPath id="freepik--clip-path-3--inject-98"><path d="M271.05,135.72s-30.75,20.65-30.75,22.84S238.1,192.83,239,195s9.66,24.61,19.33,24.61,27.68-12.31,28.56-15.38,3.07-8.79,3.07-8.79,7.91,0,9.67-2.64a22.76,22.76,0,0,0,2.64-6.15S275.88,166,271.05,135.72Z" style="fill:#fff;stroke:#263238;stroke-linecap:round;stroke-linejoin:round"></path></clipPath><clipPath id="freepik--clip-path-4--inject-98"><path d="M312.88,254.83s2.92-14.23,1.1-20.44S308.14,207,308.14,207s-2.19-1.83-3.29,1.46,1.46,18.61,1.46,18.61l-6.57-19s-1.82-1.82-3.28-.36a9.68,9.68,0,0,0,0,3.65c.36,2.19,4.74,16.79,4.74,16.79l-9.12-16.06s-1.1-1.46-1.83.73,7.67,22.26,7.67,22.26L288.06,222s-2.55-.36-1.09,3.29,7.3,13.87,7.3,13.87-2.92,11-.37,16.42,10.59,13.51,10.59,13.51,23,47.82,24.45,55.48,13.87,21.54,26.29,17.16,4.38-22.63-2.2-33.95c-4.95-8.53-12.44-15.91-19-23.2-4.47-5-9.73-9.23-14-14.4C317.2,266.76,311.88,259.71,312.88,254.83Z" style="fill:#fff;stroke:#263238;stroke-linecap:round;stroke-linejoin:round"></path></clipPath><clipPath id="freepik--clip-path-5--inject-98"><path d="M353,307.76c-3.52-6.06-8.32-11.55-13.16-16.83l-20.14,10.84c4.62,10.26,8.63,19.72,9.21,22.78,1.46,7.67,13.87,21.54,26.29,17.16S359.61,319.08,353,307.76Z" style="fill:#6DFFE8;stroke:#263238;stroke-linecap:round;stroke-linejoin:round"></path></clipPath><clipPath id="freepik--clip-path-6--inject-98"><path d="M187.26,322.79,182.57,291a38.53,38.53,0,0,0,3.65-5.11c1.46-2.55-6.21-12.77-9.49-19S172,250.82,168,252.64s-3.65,8-2.92,14.24,8,22.63,8,22.63-9.86,21.9-13.14,33.58,3.28,22.27,8.39,21.54,15.13-10.42,15.13-10.42" style="fill:#fff;stroke:#263238;stroke-linecap:round;stroke-linejoin:round"></path></clipPath><clipPath id="freepik--clip-path-7--inject-98"><path d="M187.26,322.79l-1.81-12.26c-2.71,2.65-6,5-9.45,5.63a12.23,12.23,0,0,1-12.09-4.64c-1.6,4.19-3,8.29-4,11.57-3.29,11.68,3.28,22.27,8.39,21.54,3.72-.53,11.06-6.8,15.13-10.42" style="fill:#6DFFE8;stroke:#263238;stroke-linecap:round;stroke-linejoin:round"></path></clipPath></defs><g id="freepik--background-simple--inject-98"><path d="M94.72,201.25s-13.83,61,26.14,114.46S230,390.33,285.67,408.93s107.5-2.11,126.7-48.86S392,287.8,382.91,226.51s-2.27-78.89-43.09-125.77-124-46.33-179.89,1.17S94.72,201.25,94.72,201.25Z" style="fill:#6DFFE8"></path><path d="M94.72,201.25s-13.83,61,26.14,114.46S230,390.33,285.67,408.93s107.5-2.11,126.7-48.86S392,287.8,382.91,226.51s-2.27-78.89-43.09-125.77-124-46.33-179.89,1.17S94.72,201.25,94.72,201.25Z" style="fill:#fff;opacity:0.7000000000000001"></path></g><g id="freepik--Pictures--inject-98"><rect x="88" y="117" width="72" height="89" style="fill:none;stroke:#263238;stroke-linecap:round;stroke-linejoin:round"></rect><rect x="99.33" y="131" width="49.35" height="61" style="fill:none;stroke:#263238;stroke-linecap:round;stroke-linejoin:round"></rect><rect x="191" y="173" width="72" height="89" style="fill:none;stroke:#263238;stroke-linecap:round;stroke-linejoin:round"></rect><rect x="202.33" y="187" width="49.35" height="61" style="fill:none;stroke:#263238;stroke-linecap:round;stroke-linejoin:round"></rect></g><g id="freepik--Window--inject-98"><rect x="296.24" y="145.09" width="56.72" height="70.91" style="fill:none;stroke:#263238;stroke-linecap:round;stroke-linejoin:round"></rect><rect x="367.14" y="145.09" width="56.72" height="70.91" style="fill:none;stroke:#263238;stroke-linecap:round;stroke-linejoin:round"></rect><rect x="296.24" y="227.6" width="56.72" height="70.91" style="fill:none;stroke:#263238;stroke-linecap:round;stroke-linejoin:round"></rect><rect x="367.14" y="227.6" width="56.72" height="70.91" style="fill:none;stroke:#263238;stroke-linecap:round;stroke-linejoin:round"></rect><rect x="296.24" y="310.11" width="56.72" height="70.9" style="fill:none;stroke:#263238;stroke-linecap:round;stroke-linejoin:round"></rect><rect x="367.14" y="310.11" width="56.72" height="70.9" style="fill:none;stroke:#263238;stroke-linecap:round;stroke-linejoin:round"></rect><path d="M360.69,71.61h0a63.17,63.17,0,0,0-63.17,63.17H423.86A63.17,63.17,0,0,0,360.69,71.61Z" style="fill:none;stroke:#263238;stroke-linecap:round;stroke-linejoin:round"></path></g><g id="freepik--Plants--inject-98"><path d="M148.78,251.85s-.25-4.82-7.36-11.21-11.64-10-11.64-10-2.8,11.27,3.83,17.69a118.52,118.52,0,0,0,15.63,12.23Z" style="fill:#6DFFE8"></path><path d="M140.57,282.48s-.26-4.82-7.36-11.22-11.65-10-11.65-10-2.79,11.27,3.83,17.69A118.52,118.52,0,0,0,141,291.16Z" style="fill:#6DFFE8"></path><path d="M148.79,260.09s.26-4.82,7.37-11.21,11.65-10,11.65-10,2.79,11.27-3.84,17.69a119.46,119.46,0,0,1-15.64,12.22Z" style="fill:#6DFFE8"></path><path d="M138.82,296.27s.76-4.76,8.51-10.37S160,277.16,160,277.16s1.58,11.5-5.68,17.19a119.44,119.44,0,0,1-16.84,10.51Z" style="fill:#6DFFE8"></path><path d="M143.08,334.93s-.25-4.82,6.15-11.93,10.53-11.19,10.53-11.19,4,10.92-2,18a118.35,118.35,0,0,1-14.26,13.8Z" style="fill:#6DFFE8"></path><path d="M143.47,344.4s.43-4.81-5.69-12.15-10.11-11.58-10.11-11.58-4.36,10.76,1.28,18.06a119.77,119.77,0,0,0,13.74,14.33Z" style="fill:#6DFFE8"></path><path d="M138.29,372.8s-.26-4.82,6.14-11.93S155,349.68,155,349.68s4,10.92-2,18a119.25,119.25,0,0,1-14.26,13.8Z" style="fill:#6DFFE8"></path><path d="M144.13,398s-1.47-4.6,2.92-13.09,7.36-13.49,7.36-13.49,6.59,9.55,2.66,17.9a119.27,119.27,0,0,1-10.3,17Z" style="fill:#6DFFE8"></path><path d="M149.33,250.59a140.09,140.09,0,0,1-1.06,15.07c-2,13.92-8.15,23.17-10.17,35.76s6.49,28.23,5.28,44.34-7,25.32-4.63,35.9,14.32,41,14.32,41" style="fill:none;stroke:#263238;stroke-linecap:round;stroke-linejoin:round;stroke-width:0.5px"></path><line x1="148.89" y1="263.3" x2="155.87" y2="257.33" style="fill:none;stroke:#263238;stroke-linecap:round;stroke-linejoin:round;stroke-width:0.5px"></line><line x1="148.89" y1="256.85" x2="145.56" y2="251.6" style="fill:none;stroke:#263238;stroke-linecap:round;stroke-linejoin:round;stroke-width:0.5px"></line><path d="M138.48,300.83s5.85-4.89,11.87-9.79" style="fill:none;stroke:#263238;stroke-linecap:round;stroke-linejoin:round;stroke-width:0.5px"></path><path d="M141,291.16s-5.59-9.68-11.69-16" style="fill:none;stroke:#263238;stroke-linecap:round;stroke-linejoin:round;stroke-width:0.5px"></path><path d="M143.68,341.78a75.42,75.42,0,0,1,12.11-18.11" style="fill:none;stroke:#263238;stroke-linecap:round;stroke-linejoin:round;stroke-width:0.5px"></path><path d="M142.85,348.61a84.4,84.4,0,0,0-7.25-12.17c-3.83-5.06-4.37-5.71-4.37-5.71" style="fill:none;stroke:#263238;stroke-linecap:round;stroke-linejoin:round;stroke-width:0.5px"></path><path d="M138.75,381.66a82.13,82.13,0,0,1,4.9-11.38,71,71,0,0,1,6.62-9.68" style="fill:none;stroke:#263238;stroke-linecap:round;stroke-linejoin:round;stroke-width:0.5px"></path><path d="M146.77,406.27A20.65,20.65,0,0,1,148,395.5c2.28-5,4.82-11.62,5.87-14.22" style="fill:none;stroke:#263238;stroke-linecap:round;stroke-linejoin:round;stroke-width:0.5px"></path><path d="M108,318.59s-.68-3,2.56-8.14,5.39-8.16,5.39-8.16,3.66,6.41.73,11.49A75.8,75.8,0,0,1,109.19,324Z" style="fill:#6DFFE8"></path><path d="M118.31,335.92s-.68-3,2.56-8.15,5.39-8.16,5.39-8.16,3.66,6.41.72,11.5a75.74,75.74,0,0,1-7.44,10.2Z" style="fill:#6DFFE8"></path><path d="M109.39,323.64s-1-2.91-6.46-5.59-8.88-4.11-8.88-4.11.26,7.39,5.43,10.16a75.37,75.37,0,0,0,11.7,4.77Z" style="fill:#6DFFE8"></path><path d="M121.77,344.06s-1.29-2.79-7-4.88-9.25-3.15-9.25-3.15,1,7.32,6.46,9.54a76.39,76.39,0,0,0,12.13,3.51Z" style="fill:#6DFFE8"></path><path d="M125.88,368.47s-.68-3-5.83-6.24-8.4-5-8.4-5-.52,7.37,4.33,10.68a76.16,76.16,0,0,0,11.13,6Z" style="fill:#6DFFE8"></path><path d="M127.29,374.33s-1.1-2.87,1.37-8.42,4.18-8.85,4.18-8.85,4.54,5.83,2.35,11.28a76.32,76.32,0,0,1-5.92,11.16Z" style="fill:#6DFFE8"></path><path d="M137,398.28s.19-3.07,4.75-7.1,7.47-6.31,7.47-6.31,1.71,7.19-2.54,11.23a75.49,75.49,0,0,1-10,7.7Z" style="fill:#6DFFE8"></path><path d="M135.39,390.82s-.68-3-5.83-6.24-8.39-5-8.39-5-.53,7.37,4.32,10.68a75.07,75.07,0,0,0,11.13,6Z" style="fill:#6DFFE8"></path><path d="M136.19,407.26s.1-3.07-4.06-7.51-6.85-7-6.85-7-2.38,7,1.48,11.42a75.26,75.26,0,0,0,9.25,8.6Z" style="fill:#6DFFE8"></path><path d="M107.41,317.91a86.85,86.85,0,0,0,3.26,9c3.61,8.19,9,12.78,12.44,20.14s.93,18.41,4.46,28.06,8.67,14.29,9.08,21.18-1.31,26.16-1.31,26.16" style="fill:none;stroke:#263238;stroke-linecap:round;stroke-linejoin:round;stroke-width:0.5px"></path><line x1="109.88" y1="325.62" x2="104.57" y2="323.18" style="fill:none;stroke:#263238;stroke-linecap:round;stroke-linejoin:round;stroke-width:0.5px"></line><line x1="108.76" y1="321.67" x2="109.89" y2="317.88" style="fill:none;stroke:#263238;stroke-linecap:round;stroke-linejoin:round;stroke-width:0.5px"></line><path d="M122.77,346.79s-4.43-2-9-3.93" style="fill:none;stroke:#263238;stroke-linecap:round;stroke-linejoin:round;stroke-width:0.5px"></path><path d="M119.54,341.31a61.61,61.61,0,0,1,4.38-11.81" style="fill:none;stroke:#263238;stroke-linecap:round;stroke-linejoin:round;stroke-width:0.5px"></path><path d="M126.7,372.76a48,48,0,0,0-10.56-9" style="fill:none;stroke:#263238;stroke-linecap:round;stroke-linejoin:round;stroke-width:0.5px"></path><path d="M128.39,376.8a55,55,0,0,1,2.33-8.71c1.47-3.76,1.69-4.26,1.69-4.26" style="fill:none;stroke:#263238;stroke-linecap:round;stroke-linejoin:round;stroke-width:0.5px"></path><path d="M136.69,401.56a44.93,44.93,0,0,1,5.25-6.06,29,29,0,0,0,3.44-3.33" style="fill:none;stroke:#263238;stroke-linecap:round;stroke-linejoin:round;stroke-width:0.5px"></path><path d="M136.65,396.33a52.57,52.57,0,0,0-5-6.12,45.55,45.55,0,0,0-5.73-4.78" style="fill:none;stroke:#263238;stroke-linecap:round;stroke-linejoin:round;stroke-width:0.5px"></path><path d="M136,412.79a13.15,13.15,0,0,0-2.64-6.38c-2.27-2.69-5-6.28-6.07-7.69" style="fill:none;stroke:#263238;stroke-linecap:round;stroke-linejoin:round;stroke-width:0.5px"></path></g><g id="freepik--Character--inject-98"><path d="M242.43,192.78a14.27,14.27,0,0,1-11-10.59c-2.19-9.12,3.65-11.68-2.19-15.69s-8-10.59-3.28-17.52,34.67-34.32,63.51-31.4,40.52,52.2,42.71,66.8-5.11,26.65-2.56,34,22.64,35,17.16,47.82-15,33.22-9.86,43.07-12,30.3-28.47,36.87c-12.54,5-35.77,6.94-47.82-15.33s-12-66.07-13.5-90.16-.37-33.22-.37-39.79S242.43,192.78,242.43,192.78Z" style="fill:#263238;stroke:#263238;stroke-linecap:round;stroke-linejoin:round"></path><path d="M280.42,136.16s11.23,37.16,42.77,56.17" style="fill:none;stroke:#595959;stroke-linecap:round;stroke-linejoin:round"></path><path d="M281.71,127.52s18.58,23.33,29.82,40.18S328,194.93,328,194.93" style="fill:none;stroke:#595959;stroke-linecap:round;stroke-linejoin:round"></path><path d="M297.27,125.79s32.41,41.05,32.41,66.11" style="fill:none;stroke:#595959;stroke-linecap:round;stroke-linejoin:round"></path><path d="M269.18,131.84S231.59,147,230.29,152.58s5.19,9.07,5.19,9.07" style="fill:none;stroke:#595959;stroke-linecap:round;stroke-linejoin:round"></path><path d="M270.91,126.22s-31.55,7.78-40.19,19.44" style="fill:none;stroke:#595959;stroke-linecap:round;stroke-linejoin:round"></path><path d="M304.61,189.74s13,8.21,15.13,17.72-8.64,16-3.89,25.06,20.74,11.67,20.74,25.93" style="fill:none;stroke:#595959;stroke-linecap:round;stroke-linejoin:round"></path><path d="M259.22,229.65s-4.38,2.55-17.52,5.47-21.53-.36-26.64,6.57-19.35,36.87-26.29,48.19-23,28.1-25.55,36.5-.36,16.79,8.4,15.33,20.44-16.79,28.47-25.92,11.68-13.14,11.68-13.14,1.83,15,2.56,22.27-15.7,97.46-15.7,97.46H308.5s-17.52-92-16.79-94.91,23.36-42.7,23.36-42.7,17.89,34.67,20.81,40.88,7.3,12,15.7,12.77,6.93-10.58,5.11-17.88S341.35,286.23,337,276s-5.47-15-13.14-24.83-28.47-15-32.85-16.79-11.68-4.74-11.68-4.74S266.52,224.54,259.22,229.65Z" style="fill:#6DFFE8"></path><g style="clip-path:url(#freepik--clip-path--inject-98)"><g style="opacity:0.2"><polygon points="289.77 278.34 292.33 271.82 292.05 271.72 289.49 278.23 289.77 278.34"></polygon><polygon points="294.19 272.56 293.91 272.45 291.35 278.96 291.63 279.07 294.19 272.56"></polygon><polygon points="339.13 300.82 338.9 301.01 341.04 303.63 341.43 303.63 339.13 300.82"></polygon><polygon points="340.45 299.75 343.63 303.63 344.01 303.63 340.68 299.56 340.45 299.75"></polygon><polygon points="332.88 303.17 332.6 303.27 332.73 303.63 333.05 303.63 332.88 303.17"></polygon><polygon points="334.48 302.59 334.86 303.63 335.18 303.63 334.77 302.49 334.48 302.59"></polygon><path d="M324.36,300.22l-.29-.07-.36,1.42.21.4Z"></path><polygon points="326.3 300.72 326.01 300.64 325.25 303.63 325.56 303.63 326.3 300.72"></polygon><polygon points="303 299.7 302.71 299.61 301.57 303.63 301.88 303.63 303 299.7"></polygon><polygon points="303.96 303.63 304.92 300.24 304.63 300.16 303.65 303.63 303.96 303.63"></polygon><polygon points="292.71 300.46 293.66 303.63 293.97 303.63 293 300.38 292.71 300.46"></polygon><polygon points="294.91 299.8 294.63 299.89 295.75 303.63 296.06 303.63 294.91 299.8"></polygon><polygon points="303.09 284.9 306.57 278.83 306.31 278.68 302.83 284.75 303.09 284.9"></polygon><rect x="302.94" y="282.63" width="7" height="0.3" transform="translate(-91.26 408.11) rotate(-60.19)"></rect><path d="M343.5,292.05l1.09.46-.2-.4-.77-.33Z"></path><polygon points="321.15 264.27 324.63 258.2 324.37 258.05 320.89 264.13 321.15 264.27"></polygon><polygon points="319.42 263.28 322.89 257.21 322.63 257.06 319.15 263.13 319.42 263.28"></polygon><rect x="308.58" y="256.62" width="0.3" height="7" transform="translate(-94.93 254.33) rotate(-39.29)"></rect><rect x="310.13" y="255.36" width="0.3" height="7" transform="translate(-93.78 255.01) rotate(-39.29)"></rect><rect x="299.78" y="259.01" width="0.3" height="7" transform="translate(-71.32 117.44) rotate(-19.85)"></rect><rect x="301.66" y="258.33" width="0.3" height="7" transform="translate(-70.95 117.96) rotate(-19.84)"></rect><polygon points="319.84 290.46 321.86 297.17 322.14 297.08 320.13 290.38 319.84 290.46"></polygon><polygon points="330.06 293.2 336.99 292.22 336.95 291.93 330.02 292.9 330.06 293.2"></polygon><polygon points="337.23 293.91 330.3 294.88 330.34 295.18 337.27 294.2 337.23 293.91"></polygon><polygon points="335.4 286.65 335.7 286.71 337.26 279.89 336.97 279.82 335.4 286.65"></polygon><path d="M337.65,287.16l1.46-6.38-.21-.45-1.55,6.76Z"></path><polygon points="314.35 282.76 314.61 282.92 318.35 277.01 318.1 276.85 314.35 282.76"></polygon><polygon points="320.04 278.08 319.79 277.92 316.04 283.83 316.3 283.99 320.04 278.08"></polygon><polygon points="313.42 270.99 313.53 271.26 319.95 268.47 319.83 268.19 313.42 270.99"></polygon><polygon points="314.22 272.82 314.33 273.1 320.75 270.3 320.63 270.02 314.22 272.82"></polygon><rect x="303.83" y="270.42" width="7" height="0.3" transform="translate(-36.64 492.7) rotate(-74.21)"></rect><rect x="301.9" y="269.87" width="7" height="0.3" transform="translate(-37.52 490.45) rotate(-74.21)"></rect><polygon points="329.76 263.89 331.77 270.59 332.06 270.51 330.04 263.8 329.76 263.89"></polygon><polygon points="327.84 264.46 329.86 271.17 330.14 271.08 328.13 264.38 327.84 264.46"></polygon><polygon points="312.52 251.48 312.7 251.72 318.29 247.5 318.11 247.26 312.52 251.48"></polygon><polygon points="313.73 253.08 313.91 253.32 319.5 249.1 319.32 248.86 313.73 253.08"></polygon><polygon points="306.85 240.89 308.79 247.61 309.08 247.53 307.14 240.8 306.85 240.89"></polygon><polygon points="304.93 241.44 306.87 248.16 307.16 248.08 305.22 241.36 304.93 241.44"></polygon><rect x="294.69" y="244.39" width="7" height="0.3" transform="translate(36.54 527.84) rotate(-86.63)"></rect><rect x="296.69" y="244.51" width="7" height="0.3" transform="translate(38.3 529.94) rotate(-86.63)"></rect><polygon points="306.88 294.37 307.12 294.55 311.37 288.99 311.13 288.81 306.88 294.37"></polygon><path d="M308.7,295.77l.57-.73,1.05-1.87-1.86,2.42Z"></path><polygon points="303.35 293.42 303.56 293.21 298.72 288.16 298.5 288.37 303.35 293.42"></polygon><polygon points="297.06 289.75 301.9 294.8 302.12 294.6 297.27 289.55 297.06 289.75"></polygon><rect x="326.63" y="278.78" width="0.3" height="7" transform="translate(-60.7 472.87) rotate(-67.01)"></rect><polygon points="324.28 279.21 330.73 281.95 330.84 281.67 324.4 278.94 324.28 279.21"></polygon><polygon points="291.31 240.74 291.45 240.47 288 238.62 288 238.96 291.31 240.74"></polygon><polygon points="288 236.69 292.25 238.97 292.39 238.71 288 236.34 288 236.69"></polygon><polygon points="288 249.15 288 249.55 290.65 247.25 290.46 247.03 288 249.15"></polygon><polygon points="289.35 245.74 289.15 245.51 288 246.51 288 246.9 289.35 245.74"></polygon><polygon points="288 257.66 288 257.98 294.31 255.51 294.19 255.24 288 257.66"></polygon><polygon points="288 255.84 293.58 253.65 293.47 253.37 288 255.51 288 255.84"></polygon><polygon points="291.72 268.22 291.79 267.93 288 267.07 288 267.38 291.72 268.22"></polygon><polygon points="288 265.02 288 265.33 292.16 266.27 292.23 265.98 288 265.02"></polygon><polygon points="291.71 289.77 291.79 289.48 288 288.52 288 288.83 291.71 289.77"></polygon><polygon points="288 286.76 292.2 287.83 292.28 287.54 288 286.45 288 286.76"></polygon><polygon points="292.69 295.82 292.6 295.54 288 297.06 288 297.37 292.69 295.82"></polygon><polygon points="292.07 293.93 291.97 293.64 288 294.95 288 295.27 292.07 293.93"></polygon><polygon points="292.05 343.72 289.49 350.23 289.77 350.34 292.33 343.82 292.05 343.72"></polygon><polygon points="293.91 344.45 291.35 350.96 291.63 351.07 294.19 344.56 293.91 344.45"></polygon><path d="M357.16,323.6l.2.23,0,0-.06-.34Z"></path><path d="M356.05,322.31l.88-.75c0-.11-.05-.23-.08-.33l-1,.86Z"></path><polygon points="292.71 372.46 293.66 375.63 293.97 375.63 293 372.38 292.71 372.46"></polygon><polygon points="294.63 371.89 295.75 375.63 296.06 375.63 294.91 371.8 294.63 371.89"></polygon><polygon points="336.61 318.47 332.18 313.06 331.95 313.25 336.38 318.66 336.61 318.47"></polygon><polygon points="330.4 314.51 334.83 319.93 335.07 319.74 330.63 314.32 330.4 314.51"></polygon><rect x="346.35" y="332.43" width="7" height="0.3" transform="translate(-58.61 589.81) rotate(-75.75)"></rect><rect x="348.29" y="332.92" width="7" height="0.3" transform="translate(-57.69 591.95) rotate(-75.74)"></rect><path d="M342.18,333.57l-1.72-.72c.17.18.33.36.5.53l1.1.47Z"></path><path d="M298.13,315l.34-.61.08-1.36-.3,0Z"></path><path d="M297.21,361.61l-.15.14.22.23Z"></path><polygon points="348.02 322.78 347.79 322.59 343.38 328.03 343.62 328.22 348.02 322.78"></polygon><polygon points="346.46 321.52 346.23 321.33 341.83 326.77 342.06 326.96 346.46 321.52"></polygon><polygon points="347.46 311.02 347.17 310.99 346.38 317.94 346.68 317.98 347.46 311.02"></polygon><polygon points="345.18 310.76 344.39 317.72 344.69 317.75 345.48 310.8 345.18 310.76"></polygon><polygon points="291.31 312.74 291.45 312.47 288 310.62 288 310.96 291.31 312.74"></polygon><polygon points="292.39 310.71 288 308.35 288 308.69 292.25 310.97 292.39 310.71"></polygon><polygon points="288 321.55 290.65 319.25 290.46 319.03 288 321.15 288 321.55"></polygon><polygon points="289.35 317.74 289.15 317.51 288 318.51 288 318.9 289.35 317.74"></polygon><path d="M288,329.66V330l3.73-1.46c0-.11,0-.21,0-.31Z"></path><path d="M288,327.84l4.25-1.67.19-.4L288,327.51Z"></path><polygon points="291.72 340.22 291.79 339.93 288 339.07 288 339.38 291.72 340.22"></polygon><polygon points="288 337.33 292.16 338.27 292.23 337.98 288 337.02 288 337.33"></polygon><polygon points="291.71 361.77 291.79 361.48 288 360.52 288 360.83 291.71 361.77"></polygon><polygon points="288 358.76 292.2 359.83 292.28 359.54 288 358.45 288 358.76"></polygon><polygon points="292.69 367.82 292.6 367.54 288 369.06 288 369.37 292.69 367.82"></polygon><polygon points="292.07 365.93 291.97 365.64 288 366.95 288 367.27 292.07 365.93"></polygon><path d="M349.83,307.25l.26.15.77-1.34-.15-.33Z"></path><path d="M351.57,308.25l.26.15,0-.08-.15-.34Z"></path><polygon points="343.57 306.24 341.43 303.63 341.04 303.63 343.33 306.43 343.57 306.24"></polygon><polygon points="344.88 305.16 345.11 304.97 344.01 303.63 343.63 303.63 344.88 305.16"></polygon><polygon points="332.73 303.63 334.98 309.86 335.26 309.75 333.05 303.63 332.73 303.63"></polygon><polygon points="336.86 309.18 337.14 309.07 335.18 303.63 334.86 303.63 336.86 309.18"></polygon><path d="M325.25,303.63l-.16.63.21.41.26-1Z"></path><polygon points="301.09 306.43 301.88 303.63 301.57 303.63 300.8 306.35 301.09 306.43"></polygon><path d="M302.84,306.51l.63-1.14.5-1.74h-.32Z"></path><polygon points="294.73 307.17 295.01 307.08 293.97 303.63 293.66 303.63 294.73 307.17"></polygon><polygon points="296.93 306.51 296.06 303.63 295.75 303.63 296.64 306.59 296.93 306.51"></polygon><polygon points="292.05 415.72 289.49 422.23 289.77 422.34 292.33 415.82 292.05 415.72"></polygon><polygon points="293.91 416.45 291.58 422.38 291.9 422.38 294.19 416.56 293.91 416.45"></polygon><rect x="299.78" y="403.01" width="0.3" height="7" transform="translate(-120.22 126) rotate(-19.85)"></rect><rect x="301.66" y="402.33" width="0.3" height="7" transform="translate(-119.82 126.51) rotate(-19.84)"></rect><path d="M307.21,415.54c0-.21-.09-.43-.13-.66l-.85,3,.29.08Z"></path><path d="M306.37,411.13l-.09-.5-.07,0-1.91,6.74.29.08Z"></path><rect x="294.69" y="388.39" width="7" height="0.3" transform="translate(-107 663.68) rotate(-86.67)"></rect><rect x="296.69" y="388.51" width="7" height="0.3" transform="translate(-105.23 665.79) rotate(-86.67)"></rect><polygon points="291.31 384.74 291.45 384.47 288 382.62 288 382.96 291.31 384.74"></polygon><polygon points="292.39 382.71 288 380.35 288 380.69 292.25 382.97 292.39 382.71"></polygon><polygon points="288 393.55 290.65 391.25 290.46 391.03 288 393.15 288 393.55"></polygon><polygon points="289.35 389.74 289.15 389.51 288 390.51 288 390.9 289.35 389.74"></polygon><polygon points="294.19 399.24 288 401.66 288 401.98 294.31 399.51 294.19 399.24"></polygon><polygon points="293.58 397.65 293.47 397.37 288 399.51 288 399.84 293.58 397.65"></polygon><polygon points="291.72 412.22 291.79 411.93 288 411.07 288 411.38 291.72 412.22"></polygon><polygon points="292.16 410.27 292.23 409.98 288 409.02 288 409.33 292.16 410.27"></polygon><polygon points="294.73 379.17 295.01 379.08 293.97 375.63 293.66 375.63 294.73 379.17"></polygon><polygon points="296.64 378.59 296.93 378.51 296.06 375.63 295.75 375.63 296.64 378.59"></polygon><path d="M279.91,231.62h.35l.74-1.29-.28-.11Z"></path><path d="M282.56,231.62l.31-.54-.28-.11-.37.65Z"></path><polygon points="266.9 229.01 269.04 231.63 269.43 231.63 267.13 228.82 266.9 229.01"></polygon><polygon points="268.45 227.75 271.63 231.63 272.01 231.63 268.68 227.56 268.45 227.75"></polygon><polygon points="260.88 231.17 260.6 231.27 260.73 231.63 261.05 231.63 260.88 231.17"></polygon><polygon points="262.77 230.49 262.48 230.59 262.86 231.63 263.18 231.63 262.77 230.49"></polygon><polygon points="220.05 271.72 217.49 278.23 217.77 278.34 220.33 271.82 220.05 271.72"></polygon><polygon points="221.91 272.45 219.35 278.96 219.63 279.07 222.19 272.56 221.91 272.45"></polygon><polygon points="288 238.62 285.28 237.15 285.14 237.42 288 238.96 288 238.62"></polygon><polygon points="286.23 235.39 286.09 235.66 288 236.69 288 236.34 286.23 235.39"></polygon><polygon points="285.16 251.6 285.36 251.83 288 249.55 288 249.15 285.16 251.6"></polygon><polygon points="284.05 250.31 288 246.9 288 246.51 283.86 250.09 284.05 250.31"></polygon><polygon points="287.68 257.79 287.79 258.07 288 257.98 288 257.66 287.68 257.79"></polygon><polygon points="286.95 255.93 287.06 256.2 288 255.84 288 255.51 286.95 255.93"></polygon><polygon points="284.89 266.68 288 267.38 288 267.07 284.96 266.39 284.89 266.68"></polygon><polygon points="285.4 264.44 285.33 264.73 288 265.33 288 265.02 285.4 264.44"></polygon><polygon points="284.93 288.05 288 288.83 288 288.52 285 287.76 284.93 288.05"></polygon><polygon points="285.5 285.82 285.42 286.11 288 286.76 288 286.45 285.5 285.82"></polygon><polygon points="288 297.37 288 297.06 285.95 297.73 286.05 298.02 288 297.37"></polygon><polygon points="288 295.27 288 294.95 285.33 295.83 285.42 296.12 288 295.27"></polygon><path d="M246.84,235.17l-1.9-.81-.48.12,2.27,1Z"></path><path d="M246.06,237l-4.42-1.87-.51.1,4.82,2Z"></path><polygon points="279.91 303.63 280.26 303.63 281.57 301.33 281.31 301.18 279.91 303.63"></polygon><polygon points="282.56 303.63 283.31 302.32 283.05 302.17 282.22 303.63 282.56 303.63"></polygon><polygon points="266.9 301.01 269.04 303.63 269.43 303.63 267.13 300.82 266.9 301.01"></polygon><polygon points="268.45 299.75 271.63 303.63 272.01 303.63 268.68 299.56 268.45 299.75"></polygon><polygon points="260.88 303.17 260.6 303.27 260.73 303.63 261.05 303.63 260.88 303.17"></polygon><polygon points="262.48 302.59 262.86 303.63 263.18 303.63 262.77 302.49 262.48 302.59"></polygon><polygon points="252.36 300.23 252.07 300.15 251.19 303.63 251.5 303.63 252.36 300.23"></polygon><polygon points="254.3 300.72 254.01 300.64 253.25 303.63 253.56 303.63 254.3 300.72"></polygon><polygon points="231 299.7 230.71 299.61 229.57 303.63 229.88 303.63 231 299.7"></polygon><polygon points="232.92 300.24 232.63 300.16 231.65 303.63 231.97 303.63 232.92 300.24"></polygon><polygon points="220.71 300.46 221.66 303.63 221.97 303.63 221 300.38 220.71 300.46"></polygon><polygon points="222.63 299.89 223.75 303.63 224.06 303.63 222.91 299.8 222.63 299.89"></polygon><polygon points="231.09 284.9 234.57 278.83 234.31 278.68 230.83 284.75 231.09 284.9"></polygon><polygon points="232.83 285.89 236.31 279.82 236.05 279.67 232.57 285.75 232.83 285.89"></polygon><rect x="262.13" y="240.36" width="0.3" height="7" transform="translate(-95.13 221.23) rotate(-39.29)"></rect><rect x="260.58" y="241.62" width="0.3" height="7" transform="matrix(0.77, -0.63, 0.63, 0.77, -96.29, 220.54)"></rect><rect x="253.28" y="244.51" width="0.3" height="7" transform="translate(-69.16 100.79) rotate(-19.85)"></rect><rect x="255.16" y="243.83" width="0.3" height="7" transform="translate(-68.79 101.32) rotate(-19.84)"></rect><polygon points="272.28 290.21 278.73 292.95 278.84 292.67 272.4 289.94 272.28 290.21"></polygon><rect x="274.63" y="289.78" width="0.3" height="7" transform="translate(-102.52 431.71) rotate(-67.01)"></rect><rect x="274.53" y="278.06" width="7" height="0.3" transform="translate(-65.33 470.07) rotate(-74.21)"></rect><rect x="276.45" y="278.61" width="7" height="0.3" transform="translate(-64.64 471.99) rotate(-74.16)"></rect><polygon points="268.43 269.54 270.44 276.25 270.73 276.16 268.71 269.46 268.43 269.54"></polygon><polygon points="272.64 275.58 270.63 268.88 270.34 268.96 272.36 275.67 272.64 275.58"></polygon><rect x="247.26" y="261.01" width="7" height="0.3" transform="translate(-100.51 348.9) rotate(-60.19)"></rect><rect x="245.52" y="260.02" width="7" height="0.3" transform="translate(-100.5 346.95) rotate(-60.2)"></rect><rect x="236.58" y="256.62" width="0.3" height="7" transform="translate(-111.21 208.74) rotate(-39.29)"></rect><rect x="238.13" y="255.36" width="0.3" height="7" transform="translate(-110.06 209.41) rotate(-39.29)"></rect><rect x="227.78" y="259.01" width="0.3" height="7" transform="translate(-75.6 93) rotate(-19.85)"></rect><rect x="229.66" y="258.33" width="0.3" height="7" transform="translate(-75.22 93.53) rotate(-19.84)"></rect><rect x="274.35" y="260.43" width="7" height="0.3" transform="translate(-43.3 465.43) rotate(-75.7)"></rect><rect x="276.29" y="260.92" width="7" height="0.3" transform="translate(-42.32 467.68) rotate(-75.7)"></rect><rect x="265.96" y="258.69" width="0.3" height="7" transform="translate(-79.16 404.82) rotate(-67.02)"></rect><rect x="266.75" y="256.84" width="0.3" height="7" transform="translate(-77 404.37) rotate(-67.01)"></rect><polygon points="248.23 297.66 246.21 290.96 245.93 291.04 247.94 297.75 248.23 297.66"></polygon><polygon points="250.14 297.08 248.13 290.38 247.84 290.46 249.86 297.17 250.14 297.08"></polygon><polygon points="258.06 293.2 264.99 292.22 264.95 291.93 258.02 292.9 258.06 293.2"></polygon><polygon points="265.27 294.2 265.23 293.91 258.3 294.88 258.34 295.18 265.27 294.2"></polygon><polygon points="264.97 279.82 263.4 286.65 263.7 286.71 265.26 279.89 264.97 279.82"></polygon><polygon points="265.65 287.16 267.21 280.34 266.92 280.27 265.35 287.09 265.65 287.16"></polygon><polygon points="246.35 277.01 246.1 276.85 242.35 282.76 242.6 282.92 246.35 277.01"></polygon><polygon points="248.04 278.08 247.79 277.92 244.04 283.83 244.29 283.99 248.04 278.08"></polygon><rect x="241.18" y="269.58" width="7" height="0.3" transform="translate(-87.42 120.3) rotate(-23.56)"></rect><rect x="241.98" y="271.41" width="7" height="0.3" transform="translate(-88.1 120.8) rotate(-23.57)"></rect><rect x="231.83" y="270.42" width="7" height="0.3" transform="translate(-89.06 423.42) rotate(-74.21)"></rect><rect x="229.9" y="269.87" width="7" height="0.3" transform="translate(-89.93 421.17) rotate(-74.21)"></rect><polygon points="257.76 263.89 259.77 270.59 260.06 270.51 258.04 263.8 257.76 263.89"></polygon><polygon points="255.84 264.46 257.86 271.17 258.14 271.08 256.13 264.38 255.84 264.46"></polygon><rect x="239.91" y="249.34" width="7" height="0.3" transform="translate(-101.16 196.88) rotate(-37.03)"></rect><rect x="241.11" y="250.94" width="7" height="0.3" transform="translate(-101.86 197.83) rotate(-37.01)"></rect><rect x="235.82" y="240.71" width="0.3" height="7" transform="matrix(0.96, -0.28, 0.28, 0.96, -58.54, 75.14)"></rect><rect x="233.89" y="241.26" width="0.3" height="7" transform="translate(-58.75 74.6) rotate(-16.12)"></rect><rect x="222.69" y="244.39" width="7" height="0.3" transform="translate(-31.18 456.01) rotate(-86.64)"></rect><rect x="224.69" y="244.51" width="7" height="0.3" transform="translate(-29.42 458.12) rotate(-86.64)"></rect><polygon points="234.88 294.37 235.12 294.55 239.37 288.99 239.13 288.81 234.88 294.37"></polygon><polygon points="240.96 290.21 240.72 290.03 236.47 295.59 236.7 295.77 240.96 290.21"></polygon><polygon points="231.35 293.42 231.56 293.21 226.72 288.16 226.5 288.37 231.35 293.42"></polygon><polygon points="225.06 289.75 229.91 294.8 230.12 294.6 225.27 289.55 225.06 289.75"></polygon><polygon points="271.38 256.03 271.62 256.22 276.02 250.78 275.79 250.59 271.38 256.03"></polygon><polygon points="270.06 254.96 274.46 249.52 274.23 249.33 269.83 254.77 270.06 254.96"></polygon><polygon points="274.38 245.94 274.68 245.98 275.46 239.02 275.17 238.99 274.38 245.94"></polygon><polygon points="273.18 238.76 272.39 245.72 272.69 245.75 273.48 238.8 273.18 238.76"></polygon><rect x="254.63" y="278.78" width="0.3" height="7" transform="translate(-104.59 406.59) rotate(-67.01)"></rect><polygon points="252.28 279.21 258.73 281.95 258.84 281.67 252.4 278.94 252.28 279.21"></polygon><path d="M217.11,239.55l2.2,1.19.14-.27-2.07-1.11Z"></path><path d="M220.25,239l.15-.26-1-.52-.34.16Z"></path><polygon points="218.66 247.25 218.46 247.03 216 249.15 216 249.55 218.66 247.25"></polygon><polygon points="217.35 245.74 217.15 245.51 216 246.51 216 246.9 217.35 245.74"></polygon><polygon points="222.19 255.24 216 257.66 216 257.98 222.31 255.51 222.19 255.24"></polygon><polygon points="216 255.51 216 255.84 221.58 253.65 221.47 253.37 216 255.51"></polygon><polygon points="219.72 268.22 219.79 267.93 216 267.07 216 267.38 219.72 268.22"></polygon><polygon points="216 265.33 220.16 266.27 220.23 265.98 216 265.02 216 265.33"></polygon><polygon points="219.79 289.48 216 288.52 216 288.83 219.71 289.77 219.79 289.48"></polygon><polygon points="220.28 287.54 216 286.45 216 286.76 220.21 287.83 220.28 287.54"></polygon><polygon points="216 297.06 216 297.37 220.69 295.82 220.6 295.54 216 297.06"></polygon><polygon points="220.07 293.93 219.97 293.64 216 294.95 216 295.27 220.07 293.93"></polygon><polygon points="277.83 235.25 278.09 235.4 280.26 231.63 279.91 231.63 277.83 235.25"></polygon><polygon points="279.57 236.25 279.83 236.4 282.56 231.63 282.22 231.63 279.57 236.25"></polygon><polygon points="271.33 234.43 271.57 234.24 269.43 231.63 269.04 231.63 271.33 234.43"></polygon><polygon points="272.88 233.16 273.11 232.97 272.01 231.63 271.63 231.63 272.88 233.16"></polygon><polygon points="263.26 237.75 261.05 231.63 260.73 231.63 262.98 237.85 263.26 237.75"></polygon><polygon points="265.14 237.07 263.18 231.63 262.86 231.63 264.86 237.18 265.14 237.07"></polygon><path d="M250.35,234.93l.29.08.59-2.35-.33.1Z"></path><path d="M252.28,235.43l.3.07.9-3.55-.34.12Z"></path><polygon points="220.05 343.72 217.49 350.23 217.77 350.34 220.33 343.82 220.05 343.72"></polygon><polygon points="221.91 344.45 219.35 350.96 219.63 351.07 222.19 344.56 221.91 344.45"></polygon><polygon points="285.14 309.42 288 310.96 288 310.62 285.28 309.15 285.14 309.42"></polygon><polygon points="286.23 307.39 286.09 307.66 288 308.69 288 308.35 286.23 307.39"></polygon><polygon points="285.16 323.6 285.36 323.83 288 321.55 288 321.15 285.16 323.6"></polygon><polygon points="288 318.9 288 318.51 283.86 322.09 284.05 322.31 288 318.9"></polygon><polygon points="287.68 329.79 287.79 330.07 288 329.98 288 329.66 287.68 329.79"></polygon><polygon points="286.95 327.93 287.06 328.2 288 327.84 288 327.51 286.95 327.93"></polygon><polygon points="288 339.07 284.96 338.39 284.89 338.68 288 339.38 288 339.07"></polygon><polygon points="285.4 336.44 285.33 336.73 288 337.33 288 337.02 285.4 336.44"></polygon><polygon points="288 360.52 285 359.76 284.93 360.05 288 360.83 288 360.52"></polygon><polygon points="285.5 357.82 285.42 358.11 288 358.76 288 358.45 285.5 357.82"></polygon><polygon points="288 369.37 288 369.06 285.95 369.73 286.05 370.02 288 369.37"></polygon><polygon points="288 367.27 288 366.95 285.33 367.83 285.42 368.12 288 367.27"></polygon><polygon points="246.84 307.17 240.4 304.44 240.28 304.71 246.73 307.45 246.84 307.17"></polygon><rect x="242.63" y="304.28" width="0.3" height="7" transform="translate(-135.37 411.09) rotate(-67.01)"></rect><polygon points="281.57 373.33 281.31 373.18 279.91 375.63 280.26 375.63 281.57 373.33"></polygon><polygon points="283.31 374.32 283.05 374.17 282.22 375.63 282.56 375.63 283.31 374.32"></polygon><polygon points="266.9 373.01 269.04 375.63 269.43 375.63 267.13 372.82 266.9 373.01"></polygon><polygon points="268.45 371.75 271.63 375.63 272.01 375.63 268.68 371.56 268.45 371.75"></polygon><polygon points="260.88 375.17 260.6 375.27 260.73 375.63 261.05 375.63 260.88 375.17"></polygon><polygon points="262.48 374.59 262.86 375.63 263.18 375.63 262.77 374.49 262.48 374.59"></polygon><polygon points="252.36 372.23 252.07 372.15 251.19 375.63 251.5 375.63 252.36 372.23"></polygon><polygon points="254.3 372.72 254.01 372.64 253.25 375.63 253.56 375.63 254.3 372.72"></polygon><polygon points="231 371.7 230.71 371.61 229.57 375.63 229.88 375.63 231 371.7"></polygon><polygon points="232.92 372.24 232.63 372.16 231.65 375.63 231.97 375.63 232.92 372.24"></polygon><polygon points="220.71 372.46 221.66 375.63 221.97 375.63 221 372.38 220.71 372.46"></polygon><polygon points="222.63 371.89 223.75 375.63 224.06 375.63 222.91 371.8 222.63 371.89"></polygon><polygon points="234.31 350.68 230.83 356.75 231.09 356.9 234.57 350.83 234.31 350.68"></polygon><polygon points="236.31 351.82 236.05 351.67 232.57 357.75 232.83 357.89 236.31 351.82"></polygon><polygon points="264.61 318.47 260.18 313.06 259.95 313.25 264.38 318.66 264.61 318.47"></polygon><polygon points="263.07 319.74 258.63 314.32 258.4 314.51 262.83 319.93 263.07 319.74"></polygon><rect x="253.28" y="316.51" width="0.3" height="7" transform="translate(-93.61 105.07) rotate(-19.85)"></rect><rect x="255.16" y="315.83" width="0.3" height="7" transform="translate(-93.22 105.6) rotate(-19.84)"></rect><polygon points="278.84 364.67 272.4 361.94 272.28 362.21 278.73 364.95 278.84 364.67"></polygon><rect x="274.63" y="361.78" width="0.3" height="7" transform="translate(-168.8 475.59) rotate(-67.01)"></rect><rect x="274.53" y="350.06" width="7" height="0.3" transform="translate(-134.61 522.49) rotate(-74.21)"></rect><rect x="276.45" y="350.61" width="7" height="0.3" transform="translate(-133.9 524.34) rotate(-74.16)"></rect><polygon points="270.73 348.16 268.71 341.46 268.43 341.54 270.44 348.25 270.73 348.16"></polygon><polygon points="272.64 347.58 270.63 340.88 270.34 340.96 272.36 347.67 272.64 347.58"></polygon><polygon points="252.37 330.05 248.89 336.13 249.15 336.27 252.63 330.2 252.37 330.05"></polygon><polygon points="250.89 329.21 250.63 329.06 247.16 335.13 247.41 335.28 250.89 329.21"></polygon><polygon points="239.07 334.74 234.63 329.32 234.4 329.51 238.84 334.93 239.07 334.74"></polygon><polygon points="240.61 333.47 236.18 328.06 235.95 328.25 240.38 333.66 240.61 333.47"></polygon><rect x="227.78" y="331.01" width="0.3" height="7" transform="translate(-100.05 97.27) rotate(-19.85)"></rect><rect x="229.66" y="330.33" width="0.3" height="7" transform="translate(-99.65 97.8) rotate(-19.84)"></rect><rect x="274.35" y="332.43" width="7" height="0.3" transform="translate(-113.07 519.65) rotate(-75.7)"></rect><rect x="276.29" y="332.92" width="7" height="0.3" transform="translate(-112.08 521.89) rotate(-75.7)"></rect><polygon points="269.39 335.41 262.95 332.68 262.83 332.96 269.28 335.69 269.39 335.41"></polygon><polygon points="270.18 333.57 263.73 330.84 263.62 331.11 270.06 333.85 270.18 333.57"></polygon><polygon points="248.23 369.66 246.21 362.96 245.93 363.04 247.94 369.75 248.23 369.66"></polygon><polygon points="250.14 369.08 248.13 362.38 247.84 362.46 249.86 369.17 250.14 369.08"></polygon><polygon points="258.06 365.2 264.99 364.22 264.95 363.93 258.02 364.9 258.06 365.2"></polygon><polygon points="265.27 366.2 265.23 365.91 258.3 366.88 258.34 367.18 265.27 366.2"></polygon><polygon points="264.97 351.82 263.4 358.65 263.7 358.71 265.26 351.89 264.97 351.82"></polygon><polygon points="266.92 352.27 265.35 359.09 265.65 359.16 267.21 352.34 266.92 352.27"></polygon><polygon points="246.35 349.01 246.1 348.85 242.35 354.76 242.6 354.92 246.35 349.01"></polygon><polygon points="248.04 350.08 247.79 349.92 244.04 355.83 244.29 355.99 248.04 350.08"></polygon><rect x="241.18" y="341.58" width="7" height="0.3" transform="translate(-116.2 126.3) rotate(-23.56)"></rect><rect x="241.98" y="343.41" width="7" height="0.3" transform="translate(-116.93 126.88) rotate(-23.58)"></rect><rect x="231.83" y="342.42" width="7" height="0.3" transform="translate(-158.46 475.48) rotate(-74.16)"></rect><rect x="229.9" y="341.87" width="7" height="0.3" transform="translate(-159.38 473.11) rotate(-74.15)"></rect><polygon points="260.06 342.51 258.04 335.8 257.76 335.89 259.77 342.59 260.06 342.51"></polygon><polygon points="258.14 343.08 256.13 336.38 255.84 336.46 257.86 343.17 258.14 343.08"></polygon><polygon points="246.11 319.26 240.52 323.48 240.7 323.72 246.29 319.5 246.11 319.26"></polygon><rect x="241.11" y="322.94" width="7" height="0.3" transform="translate(-145.2 212.34) rotate(-37.01)"></rect><polygon points="237.08 319.52 235.14 312.8 234.85 312.89 236.79 319.61 237.08 319.52"></polygon><polygon points="232.93 313.44 234.87 320.17 235.16 320.08 233.22 313.36 232.93 313.44"></polygon><rect x="222.69" y="316.39" width="7" height="0.3" transform="translate(-102.94 523.98) rotate(-86.67)"></rect><rect x="224.69" y="316.51" width="7" height="0.3" transform="translate(-101.18 526.09) rotate(-86.67)"></rect><polygon points="239.37 360.99 239.13 360.81 234.88 366.37 235.12 366.55 239.37 360.99"></polygon><polygon points="240.96 362.21 240.72 362.03 236.47 367.59 236.7 367.77 240.96 362.21"></polygon><polygon points="226.5 360.37 231.35 365.42 231.56 365.21 226.72 360.16 226.5 360.37"></polygon><polygon points="230.12 366.6 225.27 361.55 225.06 361.75 229.91 366.8 230.12 366.6"></polygon><polygon points="276.02 322.78 275.79 322.59 271.38 328.03 271.62 328.22 276.02 322.78"></polygon><polygon points="274.23 321.33 269.83 326.77 270.06 326.96 274.46 321.52 274.23 321.33"></polygon><polygon points="275.46 311.02 275.17 310.99 274.38 317.94 274.68 317.98 275.46 311.02"></polygon><polygon points="273.18 310.76 272.39 317.72 272.69 317.75 273.48 310.8 273.18 310.76"></polygon><rect x="254.63" y="350.78" width="0.3" height="7" transform="translate(-170.87 450.48) rotate(-67.01)"></rect><polygon points="252.28 351.21 258.73 353.95 258.84 353.67 252.4 350.94 252.28 351.21"></polygon><polygon points="219.31 312.74 219.45 312.47 216 310.62 216 310.96 219.31 312.74"></polygon><polygon points="220.25 310.97 220.4 310.71 216 308.35 216 308.69 220.25 310.97"></polygon><polygon points="218.66 319.25 218.46 319.03 216 321.15 216 321.55 218.66 319.25"></polygon><polygon points="217.35 317.74 217.15 317.51 216 318.51 216 318.9 217.35 317.74"></polygon><polygon points="222.19 327.24 216 329.66 216 329.98 222.31 327.51 222.19 327.24"></polygon><polygon points="221.58 325.65 221.47 325.37 216 327.51 216 327.84 221.58 325.65"></polygon><polygon points="219.72 340.22 219.79 339.93 216 339.07 216 339.38 219.72 340.22"></polygon><polygon points="216 337.33 220.16 338.27 220.23 337.98 216 337.02 216 337.33"></polygon><polygon points="219.71 361.77 219.79 361.48 216 360.52 216 360.83 219.71 361.77"></polygon><polygon points="216 358.76 220.21 359.83 220.28 359.54 216 358.45 216 358.76"></polygon><polygon points="220.69 367.82 220.6 367.54 216 369.06 216 369.37 220.69 367.82"></polygon><polygon points="220.07 365.93 219.97 365.64 216 366.95 216 367.27 220.07 365.93"></polygon><polygon points="277.83 307.25 278.09 307.4 280.26 303.63 279.91 303.63 277.83 307.25"></polygon><polygon points="279.57 308.25 279.83 308.39 282.56 303.63 282.22 303.63 279.57 308.25"></polygon><polygon points="271.33 306.43 271.57 306.24 269.43 303.63 269.04 303.63 271.33 306.43"></polygon><polygon points="272.88 305.16 273.11 304.97 272.01 303.63 271.63 303.63 272.88 305.16"></polygon><polygon points="263.26 309.75 261.05 303.63 260.73 303.63 262.98 309.86 263.26 309.75"></polygon><polygon points="264.86 309.18 265.14 309.07 263.18 303.63 262.86 303.63 264.86 309.18"></polygon><polygon points="251.19 303.63 250.35 306.93 250.64 307.01 251.5 303.63 251.19 303.63"></polygon><polygon points="252.57 307.5 253.56 303.63 253.25 303.63 252.28 307.43 252.57 307.5"></polygon><polygon points="229.09 306.43 229.88 303.63 229.57 303.63 228.8 306.35 229.09 306.43"></polygon><polygon points="231.65 303.63 230.73 306.89 231.02 306.98 231.97 303.63 231.65 303.63"></polygon><polygon points="222.73 307.17 223.01 307.08 221.97 303.63 221.66 303.63 222.73 307.17"></polygon><polygon points="224.64 306.59 224.93 306.51 224.06 303.63 223.75 303.63 224.64 306.59"></polygon><polygon points="220.05 415.72 217.49 422.23 217.77 422.34 220.33 415.82 220.05 415.72"></polygon><polygon points="221.91 416.45 219.58 422.38 219.9 422.38 222.19 416.56 221.91 416.45"></polygon><polygon points="285.14 381.42 288 382.96 288 382.62 285.28 381.15 285.14 381.42"></polygon><polygon points="286.23 379.39 286.09 379.66 288 380.69 288 380.35 286.23 379.39"></polygon><polygon points="285.16 395.6 285.36 395.83 288 393.55 288 393.15 285.16 395.6"></polygon><polygon points="288 390.9 288 390.51 283.86 394.09 284.05 394.31 288 390.9"></polygon><polygon points="287.68 401.79 287.79 402.07 288 401.98 288 401.66 287.68 401.79"></polygon><polygon points="288 399.51 286.95 399.93 287.06 400.2 288 399.84 288 399.51"></polygon><polygon points="288 411.07 284.96 410.39 284.89 410.68 288 411.38 288 411.07"></polygon><polygon points="288 409.02 285.4 408.44 285.33 408.73 288 409.33 288 409.02"></polygon><polygon points="246.84 379.17 240.4 376.44 240.28 376.71 246.73 379.45 246.84 379.17"></polygon><rect x="242.63" y="376.28" width="0.3" height="7" transform="translate(-201.66 454.97) rotate(-67.01)"></rect><polygon points="264.61 390.47 260.18 385.06 259.95 385.25 264.38 390.66 264.61 390.47"></polygon><polygon points="263.07 391.74 258.63 386.32 258.4 386.51 262.83 391.93 263.07 391.74"></polygon><rect x="253.28" y="388.51" width="0.3" height="7" transform="translate(-118.06 109.35) rotate(-19.85)"></rect><rect x="255.16" y="387.83" width="0.3" height="7" transform="translate(-117.65 109.87) rotate(-19.84)"></rect><polygon points="278.84 418.81 277.82 422.38 278.14 422.38 279.13 418.89 278.84 418.81"></polygon><polygon points="280.76 419.35 279.9 422.38 280.21 422.38 281.05 419.43 280.76 419.35"></polygon><polygon points="270.73 420.16 268.71 413.46 268.43 413.54 270.44 420.25 270.73 420.16"></polygon><polygon points="272.64 419.58 270.63 412.88 270.34 412.96 272.36 419.67 272.64 419.58"></polygon><polygon points="252.63 402.2 252.37 402.05 248.89 408.13 249.15 408.27 252.63 402.2"></polygon><polygon points="250.63 401.06 247.16 407.13 247.41 407.28 250.89 401.21 250.63 401.06"></polygon><polygon points="239.07 406.74 234.63 401.32 234.4 401.51 238.84 406.93 239.07 406.74"></polygon><polygon points="240.61 405.47 236.18 400.06 235.95 400.25 240.38 405.66 240.61 405.47"></polygon><rect x="227.78" y="403.01" width="0.3" height="7" transform="translate(-124.5 101.55) rotate(-19.85)"></rect><rect x="229.66" y="402.33" width="0.3" height="7" transform="translate(-124.09 102.08) rotate(-19.84)"></rect><rect x="274.35" y="404.43" width="7" height="0.3" transform="translate(-182.82 573.89) rotate(-75.7)"></rect><rect x="276.29" y="404.92" width="7" height="0.3" transform="translate(-181.85 576.1) rotate(-75.7)"></rect><polygon points="269.39 407.41 262.95 404.68 262.83 404.96 269.28 407.69 269.39 407.41"></polygon><polygon points="270.18 405.57 263.73 402.84 263.62 403.11 270.06 405.85 270.18 405.57"></polygon><polygon points="246.1 420.85 245.12 422.38 245.48 422.38 246.35 421.01 246.1 420.85"></polygon><polygon points="247.79 421.92 247.49 422.38 247.85 422.38 248.04 422.08 247.79 421.92"></polygon><rect x="241.18" y="413.58" width="7" height="0.3" transform="translate(-144.98 132.3) rotate(-23.56)"></rect><rect x="241.98" y="415.41" width="7" height="0.3" transform="translate(-145.74 132.89) rotate(-23.58)"></rect><rect x="231.83" y="414.42" width="7" height="0.3" transform="translate(-227.72 527.84) rotate(-74.16)"></rect><rect x="229.9" y="413.87" width="7" height="0.3" transform="translate(-228.64 525.44) rotate(-74.15)"></rect><polygon points="260.06 414.51 258.04 407.8 257.76 407.89 259.77 414.59 260.06 414.51"></polygon><polygon points="258.14 415.08 256.13 408.38 255.84 408.46 257.86 415.17 258.14 415.08"></polygon><polygon points="246.29 391.5 246.11 391.26 240.52 395.48 240.7 395.72 246.29 391.5"></polygon><rect x="241.11" y="394.94" width="7" height="0.3" transform="translate(-188.55 226.85) rotate(-37.01)"></rect><polygon points="237.08 391.52 235.14 384.8 234.85 384.89 236.79 391.61 237.08 391.52"></polygon><polygon points="232.93 385.44 234.87 392.17 235.16 392.08 233.22 385.36 232.93 385.44"></polygon><rect x="222.69" y="388.39" width="7" height="0.3" transform="translate(-174.82 591.8) rotate(-86.67)"></rect><rect x="224.69" y="388.51" width="7" height="0.3" transform="translate(-173.05 593.91) rotate(-86.67)"></rect><polygon points="275.79 394.59 271.38 400.03 271.62 400.22 276.02 394.78 275.79 394.59"></polygon><polygon points="270.06 398.96 274.46 393.52 274.23 393.33 269.83 398.77 270.06 398.96"></polygon><polygon points="275.46 383.02 275.17 382.99 274.38 389.94 274.68 389.98 275.46 383.02"></polygon><polygon points="273.18 382.76 272.39 389.72 272.69 389.75 273.48 382.8 273.18 382.76"></polygon><polygon points="219.31 384.74 219.45 384.47 216 382.62 216 382.96 219.31 384.74"></polygon><polygon points="220.4 382.71 216 380.35 216 380.69 220.25 382.97 220.4 382.71"></polygon><polygon points="216 393.55 218.66 391.25 218.46 391.03 216 393.15 216 393.55"></polygon><polygon points="217.35 389.74 217.15 389.51 216 390.51 216 390.9 217.35 389.74"></polygon><polygon points="222.19 399.24 216 401.66 216 401.98 222.31 399.51 222.19 399.24"></polygon><polygon points="221.58 397.65 221.47 397.37 216 399.51 216 399.84 221.58 397.65"></polygon><polygon points="219.72 412.22 219.79 411.93 216 411.07 216 411.38 219.72 412.22"></polygon><polygon points="220.16 410.27 220.23 409.98 216 409.02 216 409.33 220.16 410.27"></polygon><polygon points="278.09 379.4 280.26 375.63 279.91 375.63 277.83 379.25 278.09 379.4"></polygon><polygon points="282.22 375.63 279.57 380.25 279.83 380.39 282.56 375.63 282.22 375.63"></polygon><polygon points="271.33 378.43 271.57 378.24 269.43 375.63 269.04 375.63 271.33 378.43"></polygon><polygon points="272.88 377.16 273.11 376.97 272.01 375.63 271.63 375.63 272.88 377.16"></polygon><polygon points="263.26 381.75 261.05 375.63 260.73 375.63 262.98 381.86 263.26 381.75"></polygon><polygon points="264.86 381.18 265.14 381.07 263.18 375.63 262.86 375.63 264.86 381.18"></polygon><polygon points="250.64 379.01 251.5 375.63 251.19 375.63 250.35 378.93 250.64 379.01"></polygon><polygon points="253.56 375.63 253.25 375.63 252.28 379.43 252.57 379.5 253.56 375.63"></polygon><polygon points="229.09 378.43 229.88 375.63 229.57 375.63 228.8 378.35 229.09 378.43"></polygon><polygon points="231.65 375.63 230.73 378.89 231.02 378.98 231.97 375.63 231.65 375.63"></polygon><polygon points="222.73 379.17 223.01 379.08 221.97 375.63 221.66 375.63 222.73 379.17"></polygon><polygon points="224.64 378.59 224.93 378.51 224.06 375.63 223.75 375.63 224.64 378.59"></polygon><polygon points="216 249.15 213.16 251.6 213.36 251.83 216 249.55 216 249.15"></polygon><polygon points="212.05 250.31 216 246.9 216 246.51 211.85 250.09 212.05 250.31"></polygon><polygon points="215.68 257.79 215.79 258.07 216 257.98 216 257.66 215.68 257.79"></polygon><polygon points="214.95 255.93 215.06 256.2 216 255.84 216 255.51 214.95 255.93"></polygon><polygon points="212.89 266.68 216 267.38 216 267.07 212.96 266.39 212.89 266.68"></polygon><polygon points="213.4 264.44 213.33 264.73 216 265.33 216 265.02 213.4 264.44"></polygon><polygon points="213 287.76 212.93 288.05 216 288.83 216 288.52 213 287.76"></polygon><polygon points="213.5 285.82 213.42 286.11 216 286.76 216 286.45 213.5 285.82"></polygon><polygon points="213.95 297.73 214.05 298.02 216 297.37 216 297.06 213.95 297.73"></polygon><polygon points="216 295.27 216 294.95 213.33 295.83 213.42 296.12 216 295.27"></polygon><polygon points="207.91 303.63 208.26 303.63 209.57 301.33 209.31 301.18 207.91 303.63"></polygon><polygon points="210.22 303.63 210.56 303.63 211.31 302.32 211.05 302.17 210.22 303.63"></polygon><polygon points="194.9 301.01 197.04 303.63 197.43 303.63 195.13 300.82 194.9 301.01"></polygon><polygon points="196.45 299.75 199.63 303.63 200.01 303.63 196.68 299.56 196.45 299.75"></polygon><polygon points="188.88 303.17 188.6 303.27 188.73 303.63 189.05 303.63 188.88 303.17"></polygon><polygon points="190.48 302.59 190.86 303.63 191.18 303.63 190.77 302.49 190.48 302.59"></polygon><path d="M179.5,303.63l.35-1.41-.46.59-.2.82Z"></path><polygon points="182.01 300.64 181.25 303.63 181.56 303.63 182.3 300.72 182.01 300.64"></polygon><polygon points="200.28 290.21 206.73 292.95 206.84 292.67 200.4 289.94 200.28 290.21"></polygon><rect x="202.63" y="289.78" width="0.3" height="7" transform="translate(-146.4 365.42) rotate(-67.01)"></rect><rect x="202.53" y="278.06" width="7" height="0.3" transform="translate(-117.85 400.51) rotate(-74.16)"></rect><rect x="204.45" y="278.61" width="7" height="0.3" transform="translate(-116.98 402.72) rotate(-74.16)"></rect><path d="M198.44,276.25l.29-.09-.87-2.89c-.07.13-.13.26-.2.38Z"></path><path d="M200.36,275.67l.28-.09-1.46-4.85-.19.38Z"></path><rect x="202.35" y="260.43" width="7" height="0.3" transform="translate(-97.51 395.67) rotate(-75.7)"></rect><rect x="204.29" y="260.92" width="7" height="0.3" transform="translate(-96.53 397.92) rotate(-75.7)"></rect><path d="M193,292.22l0-.29-6.07.85-.23.33Z"></path><rect x="186.28" y="294.39" width="7" height="0.3" transform="translate(-39.38 29.49) rotate(-8.05)"></rect><path d="M191.4,286.65l.3.06.74-3.24-.53,1Z"></path><polygon points="193.35 287.09 193.65 287.16 195.21 280.34 194.92 280.27 193.35 287.09"></polygon><polygon points="216 310.62 213.28 309.15 213.14 309.42 216 310.96 216 310.62"></polygon><polygon points="216 308.35 214.23 307.39 214.09 307.66 216 308.69 216 308.35"></polygon><path d="M216,321.15l-1.9,1.64c0,.12,0,.24,0,.36l1.86-1.6Z"></path><path d="M216,318.51l-2.16,1.86c0,.12,0,.24,0,.36L216,318.9Z"></path><polygon points="215.68 329.79 215.79 330.07 216 329.98 216 329.66 215.68 329.79"></polygon><polygon points="216 327.51 214.95 327.93 215.06 328.2 216 327.84 216 327.51"></polygon><polygon points="216 339.07 212.96 338.39 212.89 338.68 216 339.38 216 339.07"></polygon><polygon points="213.4 336.44 213.33 336.73 216 337.33 216 337.02 213.4 336.44"></polygon><polygon points="216 360.52 213 359.76 212.93 360.05 216 360.83 216 360.52"></polygon><polygon points="213.5 357.82 213.42 358.11 216 358.76 216 358.45 213.5 357.82"></polygon><polygon points="216 369.37 216 369.06 213.95 369.73 214.05 370.02 216 369.37"></polygon><polygon points="216 367.27 216 366.95 213.33 367.83 213.42 368.12 216 367.27"></polygon><polygon points="207.91 375.63 208.26 375.63 209.57 373.33 209.31 373.18 207.91 375.63"></polygon><polygon points="211.31 374.32 211.05 374.17 210.22 375.63 210.56 375.63 211.31 374.32"></polygon><polygon points="187.95 313.25 192.38 318.66 192.61 318.47 188.18 313.06 187.95 313.25"></polygon><polygon points="191.07 319.74 186.63 314.32 186.4 314.51 190.84 319.93 191.07 319.74"></polygon><rect x="181.28" y="316.51" width="0.3" height="7" transform="translate(-97.89 80.62) rotate(-19.85)"></rect><rect x="183.16" y="315.83" width="0.3" height="7" transform="translate(-97.49 81.16) rotate(-19.84)"></rect><polygon points="180.63 330.2 180.37 330.05 176.89 336.13 177.15 336.27 180.63 330.2"></polygon><polygon points="178.89 329.21 178.63 329.06 175.16 335.13 175.41 335.28 178.89 329.21"></polygon><path d="M167.07,334.74l-4.44-5.42-.13.11a1,1,0,0,0,0,.17l4.36,5.33Z"></path><polygon points="168.61 333.47 164.18 328.06 163.95 328.25 168.38 333.66 168.61 333.47"></polygon><path d="M175.13,340.5l-1.46.64A15.11,15.11,0,0,0,175.13,340.5Z"></path><path d="M164.09,339.3l.24.28.09-.34-.29-.08Z"></path><polygon points="174.29 319.5 174.11 319.26 168.52 323.48 168.7 323.72 174.29 319.5"></polygon><rect x="169.11" y="322.94" width="7" height="0.3" transform="translate(-159.56 168.67) rotate(-36.95)"></rect><path d="M203,312.5c.11-.14.22-.26.34-.39l.12-1.09-.29,0Z"></path><path d="M201,314.72l.45-3.92-.3,0-.49,4.35Z"></path><polygon points="205.83 307.25 206.09 307.4 208.26 303.63 207.91 303.63 205.83 307.25"></polygon><path d="M209,305.71l1-1.07.58-1h-.34Z"></path><polygon points="199.34 306.43 199.57 306.24 197.43 303.63 197.04 303.63 199.34 306.43"></polygon><polygon points="200.88 305.16 201.11 304.97 200.01 303.63 199.63 303.63 200.88 305.16"></polygon><polygon points="191.26 309.75 189.05 303.63 188.73 303.63 190.98 309.86 191.26 309.75"></polygon><polygon points="192.86 309.18 193.14 309.07 191.18 303.63 190.86 303.63 192.86 309.18"></polygon><polygon points="178.35 306.93 178.64 307.01 179.5 303.63 179.19 303.63 178.35 306.93"></polygon><polygon points="180.28 307.43 180.57 307.5 181.56 303.63 181.25 303.63 180.28 307.43"></polygon><polygon points="213.14 381.42 216 382.96 216 382.62 213.28 381.15 213.14 381.42"></polygon><polygon points="214.23 379.39 214.09 379.66 216 380.69 216 380.35 214.23 379.39"></polygon><polygon points="213.16 395.6 213.36 395.83 216 393.55 216 393.15 213.16 395.6"></polygon><polygon points="216 390.9 216 390.51 211.85 394.09 212.05 394.31 216 390.9"></polygon><polygon points="215.68 401.79 215.79 402.07 216 401.98 216 401.66 215.68 401.79"></polygon><polygon points="216 399.51 214.95 399.93 215.06 400.2 216 399.84 216 399.51"></polygon><polygon points="216 411.07 212.96 410.39 212.89 410.68 216 411.38 216 411.07"></polygon><polygon points="216 409.02 213.4 408.44 213.33 408.73 216 409.33 216 409.02"></polygon><polygon points="206.84 418.81 205.82 422.38 206.14 422.38 207.13 418.89 206.84 418.81"></polygon><polygon points="208.76 419.35 207.9 422.38 208.22 422.38 209.05 419.43 208.76 419.35"></polygon><path d="M200.36,419.67l.28-.09-.94-3.13c0,.23-.08.44-.12.65Z"></path><rect x="202.35" y="404.43" width="7" height="0.3" transform="translate(-236.95 504.52) rotate(-75.75)"></rect><rect x="204.29" y="404.92" width="7" height="0.3" transform="translate(-236.06 506.34) rotate(-75.7)"></rect><path d="M204,394.78l-.23-.19-.25.31c0,.2-.07.41-.11.61Z"></path><path d="M206.44,378.19l-.15.86,2-3.42h-.35Z"></path><polygon points="210.22 375.63 207.57 380.25 207.83 380.39 210.56 375.63 210.22 375.63"></polygon></g><path d="M312.25,272.88S293.71,301,285.37,312.43,266.52,324.17,269,331.58,285.37,424,285.37,424h25.34L294,327.88l24.1-46.66s12.56,48.75,23.27,54.19,16.28.81,16.9-9.7-18.23-45.11-22.25-55-11.12-18.85-16.68-24.41S289.08,233,289.08,233l-8.65,8s29.35,12.36,31.51,16.07S312.25,272.88,312.25,272.88Z" style="opacity:0.2"></path><path d="M222.08,265.79s2.59-10.8,0-8.64-35.87,59.2-35.87,59.2l-1.29-7.78s-14.69-.43-16.42,6.92-4.76,31.11,1.29,32.4,42.35-41.48,42.35-41.48-1-11.8.79-18.36S222.08,265.79,222.08,265.79Z" style="opacity:0.2"></path><path d="M211.77,302.65s-1.1-11.31,2.92-21.17,7.3-13.87,9.49-21.17" style="fill:none;stroke:#263238;stroke-linecap:round;stroke-linejoin:round"></path></g><path d="M259.22,229.65s-4.38,2.55-17.52,5.47-21.53-.36-26.64,6.57-19.35,36.87-26.29,48.19-23,28.1-25.55,36.5-.36,16.79,8.4,15.33,20.44-16.79,28.47-25.92,11.68-13.14,11.68-13.14,1.83,15,2.56,22.27-15.7,97.46-15.7,97.46H308.5s-17.52-92-16.79-94.91,23.36-42.7,23.36-42.7,17.89,34.67,20.81,40.88,7.3,12,15.7,12.77,6.93-10.58,5.11-17.88S341.35,286.23,337,276s-5.47-15-13.14-24.83-28.47-15-32.85-16.79-11.68-4.74-11.68-4.74S266.52,224.54,259.22,229.65Z" style="fill:none;stroke:#263238;stroke-linecap:round;stroke-linejoin:round"></path><path d="M259.22,229.65a40,40,0,0,1-7.21,2.77c.15,5.79.49,16.6,1,22.05.73,7.66,1.09,14.6,1.09,14.6L291,234.39c-4.38-1.82-11.68-4.74-11.68-4.74S266.52,224.54,259.22,229.65Z" style="fill:#fff;stroke:#263238;stroke-linecap:round;stroke-linejoin:round"></path><path d="M259.22,216.14l-1.46,20.08s.73,18.25,2.56,18.25,21.54-22.27,21.54-22.27l4-29.57Z" style="fill:#fff"></path><g style="clip-path:url(#freepik--clip-path-2--inject-98)"><path d="M258.93,220.18,272,231.62l-7,18.78c6.39-6.43,16.82-18.2,16.82-18.2l4-29.57-26.65,13.51Z" style="opacity:0.2"></path></g><path d="M259.22,216.14l-1.46,20.08s.73,18.25,2.56,18.25,21.54-22.27,21.54-22.27l4-29.57Z" style="fill:none;stroke:#263238;stroke-linecap:round;stroke-linejoin:round"></path><path d="M271.05,135.72s-30.75,20.65-30.75,22.84S238.1,192.83,239,195s9.66,24.61,19.33,24.61,27.68-12.31,28.56-15.38,3.07-8.79,3.07-8.79,7.91,0,9.67-2.64a22.76,22.76,0,0,0,2.64-6.15S275.88,166,271.05,135.72Z" style="fill:#fff"></path><g style="clip-path:url(#freepik--clip-path-3--inject-98)"><path d="M274.3,148c1.05,5.85,2.7,12.64,5.25,17.93,5.62,11.67,7.78,15.56,7.78,15.56S285.17,195.79,280,204c-4.26,6.76-16.13,12.92-21.89,15.62l.22,0c9.67,0,27.68-12.31,28.56-15.38s3.07-8.79,3.07-8.79,7.91,0,9.67-2.64a22.76,22.76,0,0,0,2.64-6.15S282.87,171.49,274.3,148Z" style="opacity:0.2"></path></g><path d="M271.05,135.72s-30.75,20.65-30.75,22.84S238.1,192.83,239,195s9.66,24.61,19.33,24.61,27.68-12.31,28.56-15.38,3.07-8.79,3.07-8.79,7.91,0,9.67-2.64a22.76,22.76,0,0,0,2.64-6.15S275.88,166,271.05,135.72Z" style="fill:none;stroke:#263238;stroke-linecap:round;stroke-linejoin:round"></path><path d="M259.63,170.87s-3.52,10.1-4,11.86,3.08,4.39,7,2.2" style="fill:none;stroke:#263238;stroke-linecap:round;stroke-linejoin:round"></path><path d="M247,159.32a9.59,9.59,0,0,1,11.64-2.84" style="fill:none;stroke:#263238;stroke-linecap:round;stroke-linejoin:round;stroke-width:2px"></path><path d="M270.24,158.47a9.25,9.25,0,0,1,11.36,3.41" style="fill:none;stroke:#263238;stroke-linecap:round;stroke-linejoin:round;stroke-width:2px"></path><path d="M272.23,166.71s4-4,5.68,1.42" style="fill:none;stroke:#263238;stroke-linecap:round;stroke-linejoin:round"></path><path d="M248.65,165.57s4.83-4.54,7.1,0" style="fill:none;stroke:#263238;stroke-linecap:round;stroke-linejoin:round"></path><ellipse cx="251.78" cy="172.67" rx="1.7" ry="2.98" style="fill:#263238"></ellipse><path d="M275.35,175.51c0,1.65-.76,3-1.7,3s-1.71-1.34-1.71-3,.76-3,1.71-3S275.35,173.87,275.35,175.51Z" style="fill:#263238"></path><path d="M261.72,196.53c0,2-1.35,3.69-3,3.69s-3-1.65-3-3.69,1.35-3.69,3-3.69S261.72,194.49,261.72,196.53Z" style="fill:#263238"></path><path d="M246.66,175.8s4.26,0,6.54,1.13" style="fill:none;stroke:#263238;stroke-linecap:round;stroke-linejoin:round"></path><path d="M271.37,178.92s5.4-1.13,7.67,0" style="fill:none;stroke:#263238;stroke-linecap:round;stroke-linejoin:round"></path><path d="M313.69,241.59s2.59-.43,2.16-9.07a41.46,41.46,0,0,1,2.59-16s-2.16-3.46-3.89.43S312.82,226,312,228.63s-3.46,8.21-3.46,8.21Z" style="fill:#fff;stroke:#263238;stroke-linecap:round;stroke-linejoin:round"></path><path d="M312.88,254.83s2.92-14.23,1.1-20.44S308.14,207,308.14,207s-2.19-1.83-3.29,1.46,1.46,18.61,1.46,18.61l-6.57-19s-1.82-1.82-3.28-.36a9.68,9.68,0,0,0,0,3.65c.36,2.19,4.74,16.79,4.74,16.79l-9.12-16.06s-1.1-1.46-1.83.73,7.67,22.26,7.67,22.26L288.06,222s-2.55-.36-1.09,3.29,7.3,13.87,7.3,13.87-2.92,11-.37,16.42,10.59,13.51,10.59,13.51,23,47.82,24.45,55.48,13.87,21.54,26.29,17.16,4.38-22.63-2.2-33.95c-4.95-8.53-12.44-15.91-19-23.2-4.47-5-9.73-9.23-14-14.4C317.2,266.76,311.88,259.71,312.88,254.83Z" style="fill:#fff"></path><g style="clip-path:url(#freepik--clip-path-4--inject-98)"><path d="M299,236.84l-2.31-4.72c.73,1.82,1.23,3,1.23,3L288.06,222a1.69,1.69,0,0,0-1,.22l11.08,20.26s.95,13,2.64,16c1.44,2.54,33.13,63,46.14,83.66a14.93,14.93,0,0,0,8.32-.44c12.41-4.38,4.38-22.63-2.2-33.95-4.95-8.53-12.44-15.91-19-23.2-4.47-5-9.73-9.23-14-14.4-2.82-3.4-8.14-10.45-7.14-15.33,0,0,2.92-14.23,1.1-20.44S308.14,207,308.14,207a2.37,2.37,0,0,0-1.36-.5l-.44.5s4.32,19,3.46,21.61-3.49-1.54-3.49-1.54l-6.57-19a3.74,3.74,0,0,0-1.38-.83l-1.9.47,8.15,22.61-3.41-2.17-9.12-16.06s-1.1-1.46-1.83.73l10,22.25Z" style="opacity:0.2"></path></g><path d="M312.88,254.83s2.92-14.23,1.1-20.44S308.14,207,308.14,207s-2.19-1.83-3.29,1.46,1.46,18.61,1.46,18.61l-6.57-19s-1.82-1.82-3.28-.36a9.68,9.68,0,0,0,0,3.65c.36,2.19,4.74,16.79,4.74,16.79l-9.12-16.06s-1.1-1.46-1.83.73,7.67,22.26,7.67,22.26L288.06,222s-2.55-.36-1.09,3.29,7.3,13.87,7.3,13.87-2.92,11-.37,16.42,10.59,13.51,10.59,13.51,23,47.82,24.45,55.48,13.87,21.54,26.29,17.16,4.38-22.63-2.2-33.95c-4.95-8.53-12.44-15.91-19-23.2-4.47-5-9.73-9.23-14-14.4C317.2,266.76,311.88,259.71,312.88,254.83Z" style="fill:none;stroke:#263238;stroke-linecap:round;stroke-linejoin:round"></path><path d="M353,307.76c-3.52-6.06-8.32-11.55-13.16-16.83l-20.14,10.84c4.62,10.26,8.63,19.72,9.21,22.78,1.46,7.67,13.87,21.54,26.29,17.16S359.61,319.08,353,307.76Z" style="fill:#6DFFE8"></path><g style="clip-path:url(#freepik--clip-path-5--inject-98)"><g style="opacity:0.2"><path d="M360,329.66V330l1.56-.61,0-.31Z"></path><path d="M361.25,327.35l-.06-.3-1.19.46v.33Z"></path><path d="M360,337.33l.46.1c.05-.09.11-.18.15-.27L360,337Z"></path><polygon points="338.9 301.01 341.04 303.63 341.43 303.63 339.13 300.82 338.9 301.01"></polygon><polygon points="340.45 299.75 343.63 303.63 344.01 303.63 340.68 299.56 340.45 299.75"></polygon><polygon points="332.88 303.17 332.6 303.27 332.73 303.63 333.05 303.63 332.88 303.17"></polygon><polygon points="334.48 302.59 334.86 303.63 335.18 303.63 334.77 302.49 334.48 302.59"></polygon><polygon points="323.19 303.63 323.5 303.63 324.36 300.23 324.07 300.15 323.19 303.63"></polygon><polygon points="326.01 300.64 325.25 303.63 325.56 303.63 326.3 300.72 326.01 300.64"></polygon><polygon points="337.23 293.91 333.32 294.46 332.56 294.87 337.27 294.2 337.23 293.91"></polygon><path d="M357.36,323.83l2.35-2c0-.1-.08-.2-.11-.3l-2.44,2.1Z"></path><path d="M359,319.8l-.12-.3-3,2.59.19.22Z"></path><polygon points="359.68 329.79 359.79 330.07 360 329.98 360 329.66 359.68 329.79"></polygon><polygon points="360 327.51 358.95 327.93 359.06 328.2 360 327.84 360 327.51"></polygon><path d="M359.43,338.94l-2.47-.55-.07.29,2.31.52C359.28,339.12,359.35,339,359.43,338.94Z"></path><polygon points="357.4 336.44 357.33 336.73 360 337.33 360 337.02 357.4 336.44"></polygon><polygon points="336.61 318.47 332.18 313.06 331.95 313.25 336.38 318.66 336.61 318.47"></polygon><polygon points="335.07 319.74 330.63 314.32 330.4 314.51 334.83 319.93 335.07 319.74"></polygon><path d="M326,316.09l.34.94c.91,2.26,1.63,4.18,2.1,5.62l.22-.08L326.27,316Z"></path><rect x="346.35" y="332.43" width="7" height="0.3" transform="translate(-58.83 589.45) rotate(-75.7)"></rect><rect x="348.29" y="332.92" width="7" height="0.3" transform="translate(-57.87 591.66) rotate(-75.7)"></rect><polygon points="341.39 335.41 334.95 332.68 334.83 332.96 341.28 335.69 341.39 335.41"></polygon><polygon points="342.18 333.57 335.73 330.84 335.62 331.11 342.06 333.85 342.18 333.57"></polygon><polygon points="348.02 322.78 347.79 322.59 343.38 328.03 343.62 328.22 348.02 322.78"></polygon><polygon points="346.23 321.33 341.83 326.77 342.06 326.96 346.46 321.52 346.23 321.33"></polygon><polygon points="347.46 311.02 347.17 310.99 346.38 317.94 346.68 317.98 347.46 311.02"></polygon><polygon points="345.18 310.76 344.39 317.72 344.69 317.75 345.48 310.8 345.18 310.76"></polygon><path d="M351.4,305.13l-.19-.28-1.38,2.4.26.15Z"></path><path d="M351.57,308.25l.26.15.77-1.35-.18-.29Z"></path><polygon points="343.33 306.43 343.57 306.24 341.43 303.63 341.04 303.63 343.33 306.43"></polygon><polygon points="344.88 305.16 345.11 304.97 344.01 303.63 343.63 303.63 344.88 305.16"></polygon><polygon points="335.26 309.75 333.05 303.63 332.73 303.63 334.98 309.86 335.26 309.75"></polygon><polygon points="336.86 309.18 337.14 309.07 335.18 303.63 334.86 303.63 336.86 309.18"></polygon><polygon points="322.35 306.93 322.64 307.01 323.5 303.63 323.19 303.63 322.35 306.93"></polygon><polygon points="324.28 307.43 324.57 307.5 325.56 303.63 325.25 303.63 324.28 307.43"></polygon></g><path d="M299,236.84l-2.31-4.72c.73,1.82,1.23,3,1.23,3L288.06,222a1.69,1.69,0,0,0-1,.22l11.08,20.26s.95,13,2.64,16c1.44,2.54,33.13,63,46.14,83.66a14.93,14.93,0,0,0,8.32-.44c12.41-4.38,4.38-22.63-2.2-33.95-4.95-8.53-12.44-15.91-19-23.2-4.47-5-9.73-9.23-14-14.4-2.82-3.4-8.14-10.45-7.14-15.33,0,0,2.92-14.23,1.1-20.44S308.14,207,308.14,207a2.37,2.37,0,0,0-1.36-.5l-.44.5s4.32,19,3.46,21.61-3.49-1.54-3.49-1.54l-6.57-19a3.74,3.74,0,0,0-1.38-.83l-1.9.47,8.15,22.61-3.41-2.17-9.12-16.06s-1.1-1.46-1.83.73l10,22.25Z" style="opacity:0.2"></path></g><path d="M353,307.76c-3.52-6.06-8.32-11.55-13.16-16.83l-20.14,10.84c4.62,10.26,8.63,19.72,9.21,22.78,1.46,7.67,13.87,21.54,26.29,17.16S359.61,319.08,353,307.76Z" style="fill:none;stroke:#263238;stroke-linecap:round;stroke-linejoin:round"></path><path d="M168.27,228.9l10.62,45a3.87,3.87,0,0,0,4.07,3l16.61-1.24a3.89,3.89,0,0,0,3.5-4.76l-10.61-45.22a3.88,3.88,0,0,0-4.13-3l-16.63,1.49A3.88,3.88,0,0,0,168.27,228.9Z" style="fill:#263238;stroke:#263238;stroke-linecap:round;stroke-linejoin:round"></path><path d="M187.26,322.79,182.57,291a38.53,38.53,0,0,0,3.65-5.11c1.46-2.55-6.21-12.77-9.49-19S172,250.82,168,252.64s-3.65,8-2.92,14.24,8,22.63,8,22.63-9.86,21.9-13.14,33.58,3.28,22.27,8.39,21.54,15.13-10.42,15.13-10.42" style="fill:#fff"></path><g style="clip-path:url(#freepik--clip-path-6--inject-98)"><path d="M187.26,322.79,182.57,291a38.53,38.53,0,0,0,3.65-5.11c.75-1.31-.92-4.66-3.16-8.44.23,1.37.64,5-.73,7.39a52.74,52.74,0,0,1-5.19,6.91l-8.64,23.77s-2.06,23.28-.17,29.14c5.11-.73,15.13-10.42,15.13-10.42Z" style="opacity:0.2"></path></g><path d="M187.26,322.79,182.57,291a38.53,38.53,0,0,0,3.65-5.11c1.46-2.55-6.21-12.77-9.49-19S172,250.82,168,252.64s-3.65,8-2.92,14.24,8,22.63,8,22.63-9.86,21.9-13.14,33.58,3.28,22.27,8.39,21.54,15.13-10.42,15.13-10.42" style="fill:none;stroke:#263238;stroke-linecap:round;stroke-linejoin:round"></path><path d="M187.26,322.79l-1.81-12.26c-2.71,2.65-6,5-9.45,5.63a12.23,12.23,0,0,1-12.09-4.64c-1.6,4.19-3,8.29-4,11.57-3.29,11.68,3.28,22.27,8.39,21.54,3.72-.53,11.06-6.8,15.13-10.42" style="fill:#6DFFE8"></path><g style="clip-path:url(#freepik--clip-path-7--inject-98)"><g style="opacity:0.2"><rect x="181.28" y="316.51" width="0.3" height="7" transform="translate(-97.89 80.62) rotate(-19.85)"></rect><rect x="183.16" y="315.83" width="0.3" height="7" transform="translate(-97.49 81.16) rotate(-19.84)"></rect><polygon points="180.63 330.2 180.37 330.05 176.89 336.13 177.15 336.27 180.63 330.2"></polygon><polygon points="178.89 329.21 178.63 329.06 175.16 335.13 175.41 335.28 178.89 329.21"></polygon><polygon points="167.07 334.74 162.63 329.32 162.4 329.51 166.84 334.93 167.07 334.74"></polygon><polygon points="168.61 333.47 164.18 328.06 163.95 328.25 168.38 333.66 168.61 333.47"></polygon><path d="M169.41,343l.12.28,6.32-2.76.09-.07-.11-.25Z"></path><path d="M164.13,339.16l-.84,3,.24.27.89-3.15Z"></path><path d="M161.8,340.05l.21.35.49-1.7-.29-.09Z"></path><polygon points="174.29 319.5 174.11 319.26 168.52 323.48 168.7 323.72 174.29 319.5"></polygon><rect x="169.11" y="322.94" width="7" height="0.3" transform="translate(-159.56 168.67) rotate(-36.95)"></rect><path d="M165.08,319.53l-1.82-6.3c-.06.16-.12.31-.17.47l1.7,5.91Z"></path><path d="M163.16,320.08l-1.06-3.67c-.06.17-.11.33-.17.49l.94,3.27Z"></path></g><path d="M222.08,265.79s2.59-10.8,0-8.64-35.87,59.2-35.87,59.2l-1.29-7.78s-14.69-.43-16.42,6.92-4.76,31.11,1.29,32.4,42.35-41.48,42.35-41.48-1-11.8.79-18.36S222.08,265.79,222.08,265.79Z" style="opacity:0.2"></path></g><path d="M187.26,322.79l-1.81-12.26c-2.71,2.65-6,5-9.45,5.63a12.23,12.23,0,0,1-12.09-4.64c-1.6,4.19-3,8.29-4,11.57-3.29,11.68,3.28,22.27,8.39,21.54,3.72-.53,11.06-6.8,15.13-10.42" style="fill:none;stroke:#263238;stroke-linecap:round;stroke-linejoin:round"></path><path d="M164.32,258.12s2.55-9.86,6.93-15.33,10.22-12,12.05-10.59c3.93,3.14-8.05,14.73-9.13,17.52-1.82,4.75-3.65,10.59-3.65,10.59" style="fill:#fff;stroke:#263238;stroke-linecap:round;stroke-linejoin:round"></path><path d="M170.16,261.77s7.66-10.22,11.68-14.6,12.41-4,11.31-1.46-7.66,5.47-9.85,8.39-9.49,13.51-9.49,13.51,6.57-8.4,11.31-10.95,11.68-3.65,11.68-1.1-1.09,1.83-5.11,5.11-5.11,3.29-8,6.57-5.11,6.21-5.11,6.21H191c3.29,0,7.67,1.1,7.67,2.19s.36,2.19-4.38,2.56-13.51,1.46-13.51,1.46" style="fill:#fff;stroke:#263238;stroke-linecap:round;stroke-linejoin:round"></path><line x1="426.21" y1="422.38" x2="434.84" y2="422.38" style="fill:none;stroke:#263238;stroke-linecap:round;stroke-linejoin:round"></line><line x1="69.47" y1="422.38" x2="415.23" y2="422.38" style="fill:none;stroke:#263238;stroke-linecap:round;stroke-linejoin:round"></line></g><g id="freepik--text-baloon--inject-98"><path d="M207.11,153.6a24.66,24.66,0,1,0-4.79,4.33l8.17,3.79Z" style="fill:#263238;stroke:#263238;stroke-linecap:round;stroke-linejoin:round"></path><path d="M184.63,122.76a3.25,3.25,0,0,1,0-.39,2.68,2.68,0,0,1,1.11-2.3,4.56,4.56,0,0,1,5.22,0,2.69,2.69,0,0,1,1.09,2.3,2,2,0,0,1,0,.39L190.16,143a2.24,2.24,0,0,1-.63,1.43,1.74,1.74,0,0,1-2.44,0,2.19,2.19,0,0,1-.63-1.43ZM185.88,155a3.44,3.44,0,0,1,0-4.83,3.35,3.35,0,0,1,2.52-1,3.48,3.48,0,0,1,2.49,1,3.22,3.22,0,0,1,1,2.43,3.36,3.36,0,0,1-1,2.43,3.62,3.62,0,0,1-5,0Z" style="fill:#6DFFE8"></path></g></svg>
